<svg xmlns="http://www.w3.org/2000/svg" aria-labelledby="title" width="197.246" height="31.79" viewBox="0 0 197.246 31.79">
	<title>
		Conforama
	</title>
	<g id="Logo" transform="translate(-20.736 -256.2)">
		<g id="Groupe_266" transform="translate(20.736 256.2)">
			<g id="Groupe_265">
				<g id="Groupe_264">
					<g id="Groupe_263">
						<path id="Tracé_6488" d="M101.19,299.277c-3.057,0-5.03-2.4-5.03-6.148,0-3.945,1.972-6.345,5.03-6.345s4.833,2.4,4.833,6.148c0,3.715-1.874,6.345-4.833,6.345m0-15.977c-6.148,0-10.29,3.846-10.29,9.632,0,5.917,3.846,9.632,10.092,9.632s10.421-3.846,10.421-9.764-3.978-9.5-10.224-9.5" transform="translate(-67.834 -274.391)" fill="#db3832">
						</path>
						<path id="Tracé_6489" d="M356.02,283.9c-5.589,0-7.791,2.3-7.791,7.89v.427c0,3.386-.1,7.134-.23,9.106l-.1,1.216h5.589l-.1-1.085c-.1-1.742-.1-3.386-.1-4.931v-4.7c.1-1.973.756-4.274,3.518-4.274a7.352,7.352,0,0,1,2.63.427l.329.1.559-3.616h-.23a31.787,31.787,0,0,0-4.076-.559" transform="translate(-240.346 -274.794)" fill="#db3832">
						</path>
						<path id="Tracé_6490" d="M246.187,268.922l.559-3.616h-5.819V264.09c.1-2.63,1.216-4.044,3.287-4.044a13.6,13.6,0,0,1,3.616.427l.23.1.559-3.616-.23-.1a19.552,19.552,0,0,0-4.931-.657c-4.7,0-7.463,2.729-7.66,7.791v9.961l-.1,8.12v5.917h5.359V286.9l-.1-4.833V268.89C240.927,268.922,246.187,268.922,246.187,268.922Z" transform="translate(-165.031 -256.2)" fill="#db3832">
						</path>
						<path id="Tracé_6491" d="M283.59,299.277c-3.057,0-5.03-2.4-5.03-6.148,0-3.945,1.972-6.345,5.03-6.345s4.833,2.4,4.833,6.148c0,3.715-1.972,6.345-4.833,6.345m0-15.977c-6.148,0-10.29,3.846-10.29,9.632,0,5.917,3.846,9.632,10.092,9.632s10.421-3.846,10.421-9.764-3.978-9.5-10.224-9.5" transform="translate(-190.271 -274.391)" fill="#db3832">
						</path>
						<path id="Tracé_6492" d="M182.013,298V291.89c0-4.931-2.729-7.89-7.463-7.89h-3.057c-4.7,0-7.463,2.959-7.463,7.89v1.085c0,4.833,0,5.917-.23,9.435v.23h5.589v-1.414l-.1-3.945-.1-3.846v-.427a7.9,7.9,0,0,1,.559-3.616,3.929,3.929,0,0,1,5.589-1.085,5.652,5.652,0,0,1,1.085,1.085,6.788,6.788,0,0,1,.559,3.616v.427l-.1,3.846-.1,3.945v1.414h5.49l-.1-1.315-.164-3.32" transform="translate(-116.768 -274.861)" fill="#db3832">
						</path>
						<path id="Tracé_6493" d="M491.4,297.909v-2.3l.1-3.846c0-3.287-.756-5.26-2.729-6.575a8.4,8.4,0,0,0-5.03-1.315,9.51,9.51,0,0,0-6.674,2.4,6.944,6.944,0,0,0-5.687-2.4h-3.09c-4.7,0-7.463,2.959-7.463,7.89v1.085c0,4.833,0,5.917-.23,9.435v.23h5.589V301.1l-.1-3.945-.1-3.846v-.427a7.9,7.9,0,0,1,.559-3.616,3.929,3.929,0,0,1,5.589-1.085,3.412,3.412,0,0,1,1.085,1.085,6.788,6.788,0,0,1,.559,3.616v.427l-.1,3.846-.23,3.945v1.414h5.49l-.1-1.315v-9.731a5.786,5.786,0,0,1,.427-1.874,3.1,3.1,0,0,1,.986-1.315,3.794,3.794,0,0,1,2.4-.888,3.406,3.406,0,0,1,3.386,2.3,15.922,15.922,0,0,1,.23,3.945c0,2.959,0,4.931-.23,7.66l-.1.986v.23h5.589l-.1-1.085v-3.616" transform="translate(-315.996 -274.766)" fill="#db3832">
						</path>
						<path id="Tracé_6494" d="M579.991,294.315v.427a6.194,6.194,0,0,1-.427,3.057,2.623,2.623,0,0,1-1.085.986,4.932,4.932,0,0,1-2.729.559,3.907,3.907,0,0,1-2.63-.986,2,2,0,0,1-.1-2.63c.657-1.085,2.4-1.545,5.819-1.545l1.151.132m4.931-3.846v-.427c0-2.959-.986-4.6-3.288-5.589a11.129,11.129,0,0,0-4.931-.888,26.129,26.129,0,0,0-7.134.986h-.23l.559,3.616.23-.1a14.463,14.463,0,0,1,5.687-1.216c2.959,0,4.175,1.085,4.175,3.715v.427c-4.175-.23-7.232,0-8.975.756-2.4,1.085-3.616,2.729-3.616,4.931a5.971,5.971,0,0,0,3.715,5.358c2.531,1.085,6.148.756,7.561.658,1.216-.1,5.03-.888,5.917-3.846.427-1.249.329-6.641.329-8.383" transform="translate(-387.686 -274.557)" fill="#db3832">
						</path>
						<path id="Tracé_6495" d="M405.159,294.516v.427a6.194,6.194,0,0,1-.427,3.057,2.624,2.624,0,0,1-1.085.986,4.933,4.933,0,0,1-2.729.559,3.733,3.733,0,0,1-2.63-.986,2.332,2.332,0,0,1-.23-2.63c.658-1.085,2.4-1.545,5.819-1.545l1.282.131m4.931-4.175c0-2.959-.986-4.6-3.287-5.589a11.129,11.129,0,0,0-4.931-.888,26.128,26.128,0,0,0-7.134.986h-.23l.559,3.616.23-.1a15.635,15.635,0,0,1,5.819-1.216c2.959,0,4.175,1.085,4.175,3.715v.427c-4.175-.23-7.232,0-8.975.756-2.4,1.085-3.616,2.729-3.616,4.931a5.971,5.971,0,0,0,3.715,5.359c2.531,1.085,6.148.756,7.561.658,1.216-.1,5.03-.756,5.917-3.846.427-1.315.329-6.674.329-8.449Z" transform="translate(-270.418 -274.759)" fill="#db3832">
						</path>
						<path id="Tracé_6496" d="M36.668,260.689A17.174,17.174,0,0,1,44,262.333l.23.1v-4.5h-.1a23.729,23.729,0,0,0-8.449-1.085c-4.833.1-8.778,1.742-11.407,4.5a14.18,14.18,0,0,0-3.518,10.29A13.31,13.31,0,0,0,24.6,281.17c2.729,2.531,6.805,3.846,11.736,3.616a27.847,27.847,0,0,0,5.161-.559h.23l-1.414-3.616h-.23a21.452,21.452,0,0,1-2.86.427c-6.148.23-9.632-3.189-9.862-9.534-.23-6.312,3.386-10.717,9.3-10.816" transform="translate(-20.736 -256.613)" fill="#db3832">
						</path>
					</g>
				</g>
			</g>
		</g>
	</g>
</svg>
