<svg xmlns="http://www.w3.org/2000/svg" width="20" height="20" viewBox="0 0 24 24">
	<g id="Menu_Produits" transform="translate(-21.358 -140.09)">
		<g id="ico_menu">
			<rect id="Rectangle_1278" width="24" height="24" transform="translate(21.358 140.09)" fill="rgba(110,40,40,0)">
			</rect>
			<path id="Tracé_10516" d="M1.976-6.043,3.719-1.411,5.458-6.043H6.815V0H5.769V-1.992l.1-2.665L4.088,0H3.337L1.556-4.653l.1,2.66V0H.614V-6.043ZM11.588-2.7H9.106V-.838h2.9V0H8.056V-6.043h3.922V-5.2H9.106v1.668h2.482ZM17.656,0h-1.05L13.912-4.287V0h-1.05V-6.043h1.05l2.7,4.3v-4.3h1.042Zm5.661-6.043V-2A1.963,1.963,0,0,1,22.7-.479a2.341,2.341,0,0,1-1.641.562,2.358,2.358,0,0,1-1.648-.554,1.972,1.972,0,0,1-.61-1.538V-6.043h1.046V-2a1.284,1.284,0,0,0,.307.926,1.2,1.2,0,0,0,.9.32q1.212,0,1.212-1.278V-6.043Z" transform="translate(21.358 162.09)">
			</path>
			<path id="Ligne_3298" d="M23,.5H0A.5.5,0,0,1-.5,0,.5.5,0,0,1,0-.5H23a.5.5,0,0,1,.5.5A.5.5,0,0,1,23,.5Z" transform="translate(21.858 150.09)">
			</path>
			<path id="Ligne_3297" d="M23,.5H0A.5.5,0,0,1-.5,0,.5.5,0,0,1,0-.5H23a.5.5,0,0,1,.5.5A.5.5,0,0,1,23,.5Z" transform="translate(21.858 142.09)">
			</path>
		</g>
	</g>
</svg>